<svg width="400" height="144" viewBox="0 0 400 144" fill="none" xmlns="http://www.w3.org/2000/svg" role="img" aria-label="yaebal">
<path d="M79.8035 107.584C77.1155 107.584 74.7262 107.243 72.6355 106.56C70.5448 105.92 68.5182 104.917 66.5555 103.552V94.464C68.5608 95.744 70.4382 96.6613 72.1875 97.216C73.9368 97.7707 75.8568 98.048 77.9475 98.048C79.6968 98.048 81.2542 97.664 82.6195 96.896C83.9848 96.128 85.0942 94.72 85.9475 92.672L99.9635 59.456H113.852L96.3155 96.704C95.0782 99.392 93.5635 101.525 91.7715 103.104C90.0222 104.725 88.1235 105.877 86.0755 106.56C84.0275 107.243 81.9368 107.584 79.8035 107.584ZM80.2515 92.608L64.6995 59.456H79.0995L92.8595 92.608H80.2515ZM148.546 96L146.882 82.816L148.61 77.76L146.882 72.704L148.546 59.456H162.114L159.81 77.696L162.114 96H148.546ZM151.618 77.76C151.02 81.6 149.826 84.9707 148.034 87.872C146.284 90.7733 144.044 93.0347 141.314 94.656C138.626 96.2347 135.554 97.024 132.098 97.024C128.514 97.024 125.356 96.2347 122.626 94.656C119.938 93.0347 117.826 90.7733 116.29 87.872C114.754 84.928 113.986 81.5573 113.986 77.76C113.986 73.8773 114.754 70.4853 116.29 67.584C117.826 64.6827 119.938 62.4213 122.626 60.8C125.356 59.1787 128.514 58.368 132.098 58.368C135.554 58.368 138.626 59.1787 141.314 60.8C144.044 62.3787 146.306 64.6187 148.097 67.52C149.89 70.3787 151.063 73.792 151.618 77.76ZM127.234 77.76C127.234 79.552 127.596 81.152 128.322 82.56C129.09 83.968 130.135 85.0773 131.458 85.888C132.78 86.656 134.295 87.04 136.002 87.04C137.794 87.04 139.479 86.656 141.058 85.888C142.636 85.0773 144.023 83.968 145.218 82.56C146.412 81.152 147.308 79.552 147.906 77.76C147.308 75.9253 146.412 74.304 145.218 72.896C144.023 71.488 142.636 70.3787 141.058 69.568C139.479 68.7573 137.794 68.352 136.002 68.352C134.295 68.352 132.78 68.7573 131.458 69.568C130.135 70.3787 129.09 71.488 128.322 72.896C127.596 74.304 127.234 75.9253 127.234 77.76ZM189.524 97.024C185.087 97.024 181.119 96.2133 177.62 94.592C174.164 92.9707 171.433 90.7093 169.428 87.808C167.423 84.864 166.42 81.4507 166.42 77.568C166.42 73.7707 167.38 70.4427 169.3 67.584C171.22 64.6827 173.844 62.4213 177.172 60.8C180.543 59.1787 184.34 58.368 188.564 58.368C192.959 58.368 196.692 59.328 199.764 61.248C202.879 63.1253 205.268 65.792 206.932 69.248C208.639 72.704 209.492 76.7787 209.492 81.472H176.98V73.6H202.132L197.844 76.352C197.673 74.4747 197.204 72.896 196.436 71.616C195.668 70.2933 194.644 69.2907 193.364 68.608C192.127 67.9253 190.633 67.584 188.884 67.584C186.964 67.584 185.321 67.968 183.956 68.736C182.591 69.504 181.524 70.5707 180.756 71.936C179.988 73.2587 179.604 74.816 179.604 76.608C179.604 78.912 180.116 80.8747 181.14 82.496C182.207 84.0747 183.743 85.2907 185.748 86.144C187.796 86.9973 190.292 87.424 193.236 87.424C195.924 87.424 198.591 87.0827 201.236 86.4C203.924 85.6747 206.356 84.672 208.532 83.392V91.712C206.015 93.4187 203.135 94.7413 199.892 95.68C196.692 96.576 193.236 97.024 189.524 97.024ZM215.084 46.72H228.204V70.08L226.476 73.408V82.624L228.204 85.824V96H215.084V46.72ZM223.98 77.76C224.577 73.792 225.751 70.3787 227.5 67.52C229.249 64.6187 231.489 62.3787 234.22 60.8C236.993 59.1787 240.087 58.368 243.5 58.368C247.084 58.368 250.22 59.1787 252.908 60.8C255.639 62.4213 257.751 64.6827 259.244 67.584C260.78 70.4853 261.548 73.8773 261.548 77.76C261.548 81.5573 260.78 84.928 259.244 87.872C257.751 90.7733 255.639 93.0347 252.908 94.656C250.22 96.2347 247.084 97.024 243.5 97.024C240.044 97.024 236.951 96.2347 234.22 94.656C231.489 93.0347 229.249 90.7733 227.5 87.872C225.751 84.9707 224.577 81.6 223.98 77.76ZM248.364 77.76C248.364 75.9253 247.98 74.304 247.212 72.896C246.487 71.488 245.463 70.3787 244.14 69.568C242.817 68.7573 241.281 68.352 239.532 68.352C237.783 68.352 236.119 68.7573 234.54 69.568C232.961 70.3787 231.575 71.488 230.38 72.896C229.185 74.304 228.268 75.9253 227.628 77.76C228.268 79.552 229.185 81.152 230.38 82.56C231.575 83.968 232.961 85.0773 234.54 85.888C236.119 86.656 237.783 87.04 239.532 87.04C241.281 87.04 242.817 86.656 244.14 85.888C245.463 85.0773 246.487 83.968 247.212 82.56C247.98 81.152 248.364 79.552 248.364 77.76ZM300.233 96L298.569 82.816L300.297 77.76L298.569 72.704L300.233 59.456H313.801L311.497 77.696L313.801 96H300.233ZM303.305 77.76C302.708 81.6 301.513 84.9707 299.721 87.872C297.972 90.7733 295.732 93.0347 293.001 94.656C290.313 96.2347 287.241 97.024 283.785 97.024C280.201 97.024 277.044 96.2347 274.313 94.656C271.625 93.0347 269.513 90.7733 267.977 87.872C266.441 84.928 265.673 81.5573 265.673 77.76C265.673 73.8773 266.441 70.4853 267.977 67.584C269.513 64.6827 271.625 62.4213 274.313 60.8C277.044 59.1787 280.201 58.368 283.785 58.368C287.241 58.368 290.313 59.1787 293.001 60.8C295.732 62.3787 297.993 64.6187 299.785 67.52C301.577 70.3787 302.75 73.792 303.305 77.76ZM278.921 77.76C278.921 79.552 279.284 81.152 280.009 82.56C280.777 83.968 281.822 85.0773 283.145 85.888C284.468 86.656 285.982 87.04 287.689 87.04C289.481 87.04 291.166 86.656 292.745 85.888C294.324 85.0773 295.71 83.968 296.905 82.56C298.1 81.152 298.996 79.552 299.593 77.76C298.996 75.9253 298.1 74.304 296.905 72.896C295.71 71.488 294.324 70.3787 292.745 69.568C291.166 68.7573 289.481 68.352 287.689 68.352C285.982 68.352 284.468 68.7573 283.145 69.568C281.822 70.3787 280.777 71.488 280.009 72.896C279.284 74.304 278.921 75.9253 278.921 77.76ZM320.084 46.72H333.204V96H320.084V46.72Z" fill="#00B798"/>
</svg>
